<svg width="300" height="300" xmlns="http://www.w3.org/2000/svg"><g><path d="M-128.9387596026063,-17.634309735149145L-117.74697856977582,193.04809394292533L-15.620730333030224,51.26913959160447Z" fill="#f9f9f9" stroke="#f9f9f9"/><path d="M-128.9387596026063,-17.634309735149145L-15.620730333030224,51.26913959160447L109.38566160388291,-38.3001808449626Z" fill="#ffffff" stroke="#ffffff"/><path d="M-128.9387596026063,-17.634309735149145L109.38566160388291,-38.3001808449626L336.76518847234547,-90.94784905202687Z" fill="#dbdbdb" stroke="#dbdbdb"/><path d="M109.38566160388291,-38.3001808449626L-15.620730333030224,51.26913959160447L127.97237360849977,96.53889887966216Z" fill="#e3e3e3" stroke="#e3e3e3"/><path d="M109.38566160388291,-38.3001808449626L127.97237360849977,96.53889887966216L233.09666217304766,59.3650736566633Z" fill="#c5c5c5" stroke="#c5c5c5"/><path d="M109.38566160388291,-38.3001808449626L233.09666217304766,59.3650736566633L273.8347185216844,-20.1804474927485Z" fill="#b2b2b2" stroke="#b2b2b2"/><path d="M109.38566160388291,-38.3001808449626L273.8347185216844,-20.1804474927485L336.76518847234547,-90.94784905202687Z" fill="#a2a2a2" stroke="#a2a2a2"/><path d="M273.8347185216844,-20.1804474927485L233.09666217304766,59.3650736566633L408.7620478961617,81.8723155092448Z" fill="#818181" stroke="#818181"/><path d="M273.8347185216844,-20.1804474927485L408.7620478961617,81.8723155092448L336.76518847234547,-90.94784905202687Z" fill="#808080" stroke="#808080"/><path d="M-15.620730333030224,51.26913959160447L-117.74697856977582,193.04809394292533L109.20541159808636,284.3667960818857Z" fill="#cacaca" stroke="#cacaca"/><path d="M-15.620730333030224,51.26913959160447L109.20541159808636,284.3667960818857L127.97237360849977,96.53889887966216Z" fill="#c3c3c3" stroke="#c3c3c3"/><path d="M127.97237360849977,96.53889887966216L109.20541159808636,284.3667960818857L254.49878652580082,240.55381547659636Z" fill="#7f7f7f" stroke="#7f7f7f"/><path d="M127.97237360849977,96.53889887966216L254.49878652580082,240.55381547659636L233.09666217304766,59.3650736566633Z" fill="#939393" stroke="#939393"/><path d="M233.09666217304766,59.3650736566633L254.49878652580082,240.55381547659636L408.7620478961617,81.8723155092448Z" fill="#6b6b6b" stroke="#6b6b6b"/><path d="M408.7620478961617,81.8723155092448L254.49878652580082,240.55381547659636L319.5307568460703,283.29250199720263Z" fill="#3e3e3e" stroke="#3e3e3e"/><path d="M408.7620478961617,81.8723155092448L319.5307568460703,283.29250199720263L369.72746539860964,383.42295940965414Z" fill="#242424" stroke="#242424"/><path d="M-117.74697856977582,193.04809394292533L-30.8567804004997,394.23384172841907L109.20541159808636,284.3667960818857Z" fill="#8d8d8d" stroke="#8d8d8d"/><path d="M109.20541159808636,284.3667960818857L-30.8567804004997,394.23384172841907L75.92668262310326,407.27648145519197Z" fill="#6d6d6d" stroke="#6d6d6d"/><path d="M109.20541159808636,284.3667960818857L75.92668262310326,407.27648145519197L221.35421834886074,350.67616883665323Z" fill="#505050" stroke="#505050"/><path d="M109.20541159808636,284.3667960818857L221.35421834886074,350.67616883665323L254.49878652580082,240.55381547659636Z" fill="#444444" stroke="#444444"/><path d="M254.49878652580082,240.55381547659636L221.35421834886074,350.67616883665323L319.5307568460703,283.29250199720263Z" fill="#242424" stroke="#242424"/><path d="M319.5307568460703,283.29250199720263L221.35421834886074,350.67616883665323L369.72746539860964,383.42295940965414Z" fill="#060606" stroke="#060606"/><path d="M75.92668262310326,407.27648145519197L369.72746539860964,383.42295940965414L221.35421834886074,350.67616883665323Z" fill="#2a2a2a" stroke="#2a2a2a"/></g></svg>