<svg width="300" height="300" xmlns="http://www.w3.org/2000/svg"><g><path d="M-23.80433924496174,-118.04111497476697L-121.48332685232162,174.5938666909933L-43.91512284055352,130.5169076565653Z" fill="#fd9268" stroke="#fd9268"/><path d="M-23.80433924496174,-118.04111497476697L-43.91512284055352,130.5169076565653L68.52776809595525,-27.3493570368737Z" fill="#fe995f" stroke="#fe995f"/><path d="M-23.80433924496174,-118.04111497476697L68.52776809595525,-27.3493570368737L219.89698958583176,-54.83322272077203Z" fill="#ffb066" stroke="#ffb066"/><path d="M-23.80433924496174,-118.04111497476697L219.89698958583176,-54.83322272077203L352.75789327919483,-70.9065767750144Z" fill="#d2966f" stroke="#d2966f"/><path d="M68.52776809595525,-27.3493570368737L-43.91512284055352,130.5169076565653L59.64205663651228,134.27252802997828Z" fill="#fecda1" stroke="#fecda1"/><path d="M68.52776809595525,-27.3493570368737L59.64205663651228,134.27252802997828L180.82010736688972,19.368454422801733Z" fill="#fee5af" stroke="#fee5af"/><path d="M68.52776809595525,-27.3493570368737L180.82010736688972,19.368454422801733L219.89698958583176,-54.83322272077203Z" fill="#e0b990" stroke="#e0b990"/><path d="M219.89698958583176,-54.83322272077203L180.82010736688972,19.368454422801733L318.7981133814901,49.89945220761001Z" fill="#b2a9ab" stroke="#b2a9ab"/><path d="M219.89698958583176,-54.83322272077203L318.7981133814901,49.89945220761001L352.75789327919483,-70.9065767750144Z" fill="#938aa1" stroke="#938aa1"/><path d="M352.75789327919483,-70.9065767750144L318.7981133814901,49.89945220761001L397.4425888247788,259.28160284645855Z" fill="#80a4e5" stroke="#80a4e5"/><path d="M-43.91512284055352,130.5169076565653L-121.48332685232162,174.5938666909933L-35.193721717223525,323.4944334626198Z" fill="#d0918a" stroke="#d0918a"/><path d="M-43.91512284055352,130.5169076565653L-35.193721717223525,323.4944334626198L59.64205663651228,134.27252802997828Z" fill="#d6b6a8" stroke="#d6b6a8"/><path d="M59.64205663651228,134.27252802997828L-35.193721717223525,323.4944334626198L109.74921106360853,256.50489061139524Z" fill="#c6cdc3" stroke="#c6cdc3"/><path d="M59.64205663651228,134.27252802997828L109.74921106360853,256.50489061139524L271.1437792517245,173.84260931052268Z" fill="#c1e4e4" stroke="#c1e4e4"/><path d="M59.64205663651228,134.27252802997828L271.1437792517245,173.84260931052268L180.82010736688972,19.368454422801733Z" fill="#d4e8dd" stroke="#d4e8dd"/><path d="M180.82010736688972,19.368454422801733L271.1437792517245,173.84260931052268L318.7981133814901,49.89945220761001Z" fill="#a9c5dc" stroke="#a9c5dc"/><path d="M318.7981133814901,49.89945220761001L271.1437792517245,173.84260931052268L397.4425888247788,259.28160284645855Z" fill="#68aefa" stroke="#68aefa"/><path d="M109.74921106360853,256.50489061139524L-35.193721717223525,323.4944334626198L98.49077367223799,381.11327924765646Z" fill="#a4c9ca" stroke="#a4c9ca"/><path d="M109.74921106360853,256.50489061139524L98.49077367223799,381.11327924765646L213.9617175143212,389.9536140449345Z" fill="#85d2e5" stroke="#85d2e5"/><path d="M109.74921106360853,256.50489061139524L213.9617175143212,389.9536140449345L271.1437792517245,173.84260931052268Z" fill="#82c8ed" stroke="#82c8ed"/><path d="M271.1437792517245,173.84260931052268L213.9617175143212,389.9536140449345L397.4425888247788,259.28160284645855Z" fill="#4daafa" stroke="#4daafa"/><path d="M397.4425888247788,259.28160284645855L213.9617175143212,389.9536140449345L373.72150618582964,408.15340030007064Z" fill="#1a94ff" stroke="#1a94ff"/><path d="M98.49077367223799,381.11327924765646L373.72150618582964,408.15340030007064L213.9617175143212,389.9536140449345Z" fill="#40aff1" stroke="#40aff1"/></g></svg>