<svg width="300" height="300" xmlns="http://www.w3.org/2000/svg"><g><path d="M-34.85472969710827,-78.78613228909671L-124.74554473534226,238.98553669452667L-22.994012106209993,99.44091034121811Z" fill="#fff6b7" stroke="#fff6b7"/><path d="M-34.85472969710827,-78.78613228909671L-22.994012106209993,99.44091034121811L41.664028745144606,66.49704183451831Z" fill="#fffabe" stroke="#fffabe"/><path d="M-34.85472969710827,-78.78613228909671L41.664028745144606,66.49704183451831L29.99513969756663,-84.70160722732544Z" fill="#fff8d7" stroke="#fff8d7"/><path d="M29.99513969756663,-84.70160722732544L41.664028745144606,66.49704183451831L170.66936667077243,-92.33719549141824Z" fill="#ffe7b2" stroke="#ffe7b2"/><path d="M29.99513969756663,-84.70160722732544L170.66936667077243,-92.33719549141824L354.61428048089147,-114.07836573198438Z" fill="#efb78c" stroke="#efb78c"/><path d="M170.66936667077243,-92.33719549141824L41.664028745144606,66.49704183451831L249.47844411246479,127.42877807468176Z" fill="#f5c370" stroke="#f5c370"/><path d="M170.66936667077243,-92.33719549141824L249.47844411246479,127.42877807468176L346.15792005322874,102.34980161301792Z" fill="#e28e52" stroke="#e28e52"/><path d="M170.66936667077243,-92.33719549141824L346.15792005322874,102.34980161301792L354.61428048089147,-114.07836573198438Z" fill="#dc8280" stroke="#dc8280"/><path d="M354.61428048089147,-114.07836573198438L346.15792005322874,102.34980161301792L372.2924190759659,180.5873836018145Z" fill="#cf7a4c" stroke="#cf7a4c"/><path d="M-22.994012106209993,99.44091034121811L-124.74554473534226,238.98553669452667L-77.18816642649472,322.5463118311018Z" fill="#ffac8b" stroke="#ffac8b"/><path d="M-22.994012106209993,99.44091034121811L-77.18816642649472,322.5463118311018L123.19113526493311,255.96635109744966Z" fill="#ffa364" stroke="#ffa364"/><path d="M-22.994012106209993,99.44091034121811L123.19113526493311,255.96635109744966L41.664028745144606,66.49704183451831Z" fill="#ffcc67" stroke="#ffcc67"/><path d="M41.664028745144606,66.49704183451831L123.19113526493311,255.96635109744966L249.47844411246479,127.42877807468176Z" fill="#f8a63c" stroke="#f8a63c"/><path d="M249.47844411246479,127.42877807468176L123.19113526493311,255.96635109744966L277.98558259382844,169.46145636029541Z" fill="#e96918" stroke="#e96918"/><path d="M249.47844411246479,127.42877807468176L277.98558259382844,169.46145636029541L346.15792005322874,102.34980161301792Z" fill="#db6325" stroke="#db6325"/><path d="M346.15792005322874,102.34980161301792L277.98558259382844,169.46145636029541L372.2924190759659,180.5873836018145Z" fill="#d45720" stroke="#d45720"/><path d="M123.19113526493311,255.96635109744966L-77.18816642649472,322.5463118311018L35.09136652573943,347.74220949970186Z" fill="#ff7550" stroke="#ff7550"/><path d="M123.19113526493311,255.96635109744966L35.09136652573943,347.74220949970186L248.5197010729462,409.75574534386396Z" fill="#f8501c" stroke="#f8501c"/><path d="M123.19113526493311,255.96635109744966L248.5197010729462,409.75574534386396L320.9513206779957,362.7240341808647Z" fill="#e72000" stroke="#e72000"/><path d="M123.19113526493311,255.96635109744966L320.9513206779957,362.7240341808647L277.98558259382844,169.46145636029541Z" fill="#e52e00" stroke="#e52e00"/><path d="M277.98558259382844,169.46145636029541L320.9513206779957,362.7240341808647L372.2924190759659,180.5873836018145Z" fill="#d52207" stroke="#d52207"/><path d="M-77.18816642649472,322.5463118311018L248.5197010729462,409.75574534386396L35.09136652573943,347.74220949970186Z" fill="#ff6a39" stroke="#ff6a39"/></g></svg>