<svg width="300" height="300" xmlns="http://www.w3.org/2000/svg"><g><path d="M-18.308112686499953,-108.56588912196457L-124.79063990525901,90.83595681935549L59.672978203743696,-71.76599697209895Z" fill="#fffcfa" stroke="#fffcfa"/><path d="M-18.308112686499953,-108.56588912196457L59.672978203743696,-71.76599697209895L318.60303268767893,-53.664560476318Z" fill="#fdc2b3" stroke="#fdc2b3"/><path d="M59.672978203743696,-71.76599697209895L-124.79063990525901,90.83595681935549L110.0871036015451,74.86322156153619Z" fill="#ffe3d4" stroke="#ffe3d4"/><path d="M59.672978203743696,-71.76599697209895L110.0871036015451,74.86322156153619L165.806962614879,-35.46773487702012Z" fill="#fec6b7" stroke="#fec6b7"/><path d="M59.672978203743696,-71.76599697209895L165.806962614879,-35.46773487702012L318.60303268767893,-53.664560476318Z" fill="#f3a49b" stroke="#f3a49b"/><path d="M165.806962614879,-35.46773487702012L110.0871036015451,74.86322156153619L262.0972106885165,88.24160498566926Z" fill="#f49784" stroke="#f49784"/><path d="M165.806962614879,-35.46773487702012L262.0972106885165,88.24160498566926L318.60303268767893,-53.664560476318Z" fill="#de8087" stroke="#de8087"/><path d="M318.60303268767893,-53.664560476318L262.0972106885165,88.24160498566926L423.10555472038686,126.65062322281301Z" fill="#c26f62" stroke="#c26f62"/><path d="M-124.79063990525901,90.83595681935549L-67.86246207542717,383.22887286543846L-37.27079392410815,275.9884229209274Z" fill="#f78288" stroke="#f78288"/><path d="M-124.79063990525901,90.83595681935549L-37.27079392410815,275.9884229209274L117.72772771306336,178.4976649750024Z" fill="#fca495" stroke="#fca495"/><path d="M-124.79063990525901,90.83595681935549L117.72772771306336,178.4976649750024L110.0871036015451,74.86322156153619Z" fill="#feb89c" stroke="#feb89c"/><path d="M110.0871036015451,74.86322156153619L117.72772771306336,178.4976649750024L218.91734314151108,198.42381340451539Z" fill="#fd7452" stroke="#fd7452"/><path d="M110.0871036015451,74.86322156153619L218.91734314151108,198.42381340451539L262.0972106885165,88.24160498566926Z" fill="#ee6b54" stroke="#ee6b54"/><path d="M262.0972106885165,88.24160498566926L218.91734314151108,198.42381340451539L374.6477531734854,256.7595150601119Z" fill="#cf2c21" stroke="#cf2c21"/><path d="M262.0972106885165,88.24160498566926L374.6477531734854,256.7595150601119L423.10555472038686,126.65062322281301Z" fill="#bc3b2a" stroke="#bc3b2a"/><path d="M423.10555472038686,126.65062322281301L374.6477531734854,256.7595150601119L427.7929772157222,405.0183729920536Z" fill="#a10004" stroke="#a10004"/><path d="M-37.27079392410815,275.9884229209274L-67.86246207542717,383.22887286543846L97.84700743854046,380.24840586818755Z" fill="#ee746e" stroke="#ee746e"/><path d="M-37.27079392410815,275.9884229209274L97.84700743854046,380.24840586818755L117.72772771306336,178.4976649750024Z" fill="#f35d50" stroke="#f35d50"/><path d="M117.72772771306336,178.4976649750024L97.84700743854046,380.24840586818755L218.91734314151108,198.42381340451539Z" fill="#f43930" stroke="#f43930"/><path d="M218.91734314151108,198.42381340451539L97.84700743854046,380.24840586818755L261.19915028102696,401.4407904446125Z" fill="#e01e18" stroke="#e01e18"/><path d="M218.91734314151108,198.42381340451539L261.19915028102696,401.4407904446125L374.6477531734854,256.7595150601119Z" fill="#c70000" stroke="#c70000"/><path d="M374.6477531734854,256.7595150601119L261.19915028102696,401.4407904446125L427.7929772157222,405.0183729920536Z" fill="#aa0000" stroke="#aa0000"/><path d="M-67.86246207542717,383.22887286543846L261.19915028102696,401.4407904446125L97.84700743854046,380.24840586818755Z" fill="#e94d3e" stroke="#e94d3e"/></g></svg>