<svg width="300" height="300" xmlns="http://www.w3.org/2000/svg"><g><path d="M-32.06723182462156,-101.65416584350169L-126.80074059404433,363.4876714926213L-20.40975473821163,31.043736711144447Z" fill="#ebebfd" stroke="#ebebfd"/><path d="M-32.06723182462156,-101.65416584350169L-20.40975473821163,31.043736711144447L123.04199575446546,-125.53313557058573Z" fill="#f2f2f8" stroke="#f2f2f8"/><path d="M123.04199575446546,-125.53313557058573L-20.40975473821163,31.043736711144447L53.5031427629292,118.97205420769751Z" fill="#eaeaf4" stroke="#eaeaf4"/><path d="M123.04199575446546,-125.53313557058573L53.5031427629292,118.97205420769751L196.8542052526027,94.35850437730551Z" fill="#d0cee5" stroke="#d0cee5"/><path d="M123.04199575446546,-125.53313557058573L196.8542052526027,94.35850437730551L257.44320002384484,-48.23841121047735Z" fill="#bab3d7" stroke="#bab3d7"/><path d="M123.04199575446546,-125.53313557058573L257.44320002384484,-48.23841121047735L402.0473768748343,-109.95322683826089Z" fill="#a387c1" stroke="#a387c1"/><path d="M257.44320002384484,-48.23841121047735L196.8542052526027,94.35850437730551L350.97415996715426,129.93537087924778Z" fill="#9b7cbf" stroke="#9b7cbf"/><path d="M257.44320002384484,-48.23841121047735L350.97415996715426,129.93537087924778L402.0473768748343,-109.95322683826089Z" fill="#8780a8" stroke="#8780a8"/><path d="M402.0473768748343,-109.95322683826089L350.97415996715426,129.93537087924778L360.05916179157794,212.19755709171295Z" fill="#73749c" stroke="#73749c"/><path d="M402.0473768748343,-109.95322683826089L360.05916179157794,212.19755709171295L400.92679395340383,361.5126454643905Z" fill="#53528a" stroke="#53528a"/><path d="M-20.40975473821163,31.043736711144447L-126.80074059404433,363.4876714926213L-32.18402115628123,225.62418239191175Z" fill="#c1b4e3" stroke="#c1b4e3"/><path d="M-20.40975473821163,31.043736711144447L-32.18402115628123,225.62418239191175L53.5031427629292,118.97205420769751Z" fill="#d9d6f4" stroke="#d9d6f4"/><path d="M53.5031427629292,118.97205420769751L-32.18402115628123,225.62418239191175L79.6813140437007,202.75455828756094Z" fill="#b8b3e3" stroke="#b8b3e3"/><path d="M53.5031427629292,118.97205420769751L79.6813140437007,202.75455828756094L196.8542052526027,94.35850437730551Z" fill="#afadde" stroke="#afadde"/><path d="M196.8542052526027,94.35850437730551L79.6813140437007,202.75455828756094L191.31773276254535,206.2970679346472Z" fill="#9390cf" stroke="#9390cf"/><path d="M196.8542052526027,94.35850437730551L191.31773276254535,206.2970679346472L350.97415996715426,129.93537087924778Z" fill="#8168bb" stroke="#8168bb"/><path d="M350.97415996715426,129.93537087924778L191.31773276254535,206.2970679346472L360.05916179157794,212.19755709171295Z" fill="#5d44a0" stroke="#5d44a0"/><path d="M-32.18402115628123,225.62418239191175L-126.80074059404433,363.4876714926213L47.95916377566755,428.0411021411419Z" fill="#8780af" stroke="#8780af"/><path d="M-32.18402115628123,225.62418239191175L47.95916377566755,428.0411021411419L79.6813140437007,202.75455828756094Z" fill="#9070bc" stroke="#9070bc"/><path d="M79.6813140437007,202.75455828756094L47.95916377566755,428.0411021411419L197.05264242365956,323.9033057447523Z" fill="#6756a1" stroke="#6756a1"/><path d="M79.6813140437007,202.75455828756094L197.05264242365956,323.9033057447523L191.31773276254535,206.2970679346472Z" fill="#775eb5" stroke="#775eb5"/><path d="M191.31773276254535,206.2970679346472L197.05264242365956,323.9033057447523L360.05916179157794,212.19755709171295Z" fill="#59289a" stroke="#59289a"/><path d="M360.05916179157794,212.19755709171295L197.05264242365956,323.9033057447523L400.92679395340383,361.5126454643905Z" fill="#28006e" stroke="#28006e"/><path d="M47.95916377566755,428.0411021411419L400.92679395340383,361.5126454643905L197.05264242365956,323.9033057447523Z" fill="#352874" stroke="#352874"/></g></svg>