<svg width="300" height="300" xmlns="http://www.w3.org/2000/svg"><g><path d="M-75.32722307369113,-57.684733774513006L-130.14289847575128,94.50783904641867L38.64013636484742,-39.53044703230262Z" fill="#fffff3" stroke="#fffff3"/><path d="M-75.32722307369113,-57.684733774513006L38.64013636484742,-39.53044703230262L352.5160114746541,-39.58557207137346Z" fill="#d2ecc6" stroke="#d2ecc6"/><path d="M38.64013636484742,-39.53044703230262L-130.14289847575128,94.50783904641867L113.61350988037884,77.6560274977237Z" fill="#f5fecb" stroke="#f5fecb"/><path d="M38.64013636484742,-39.53044703230262L113.61350988037884,77.6560274977237L167.84683001227677,67.54278302192688Z" fill="#ccecb1" stroke="#ccecb1"/><path d="M38.64013636484742,-39.53044703230262L167.84683001227677,67.54278302192688L243.21221253834665,-26.536582689732313Z" fill="#bce3b6" stroke="#bce3b6"/><path d="M38.64013636484742,-39.53044703230262L243.21221253834665,-26.536582689732313L352.5160114746541,-39.58557207137346Z" fill="#99c8a6" stroke="#99c8a6"/><path d="M243.21221253834665,-26.536582689732313L167.84683001227677,67.54278302192688L417.8480932395905,27.027881937101483Z" fill="#7cab80" stroke="#7cab80"/><path d="M243.21221253834665,-26.536582689732313L417.8480932395905,27.027881937101483L352.5160114746541,-39.58557207137346Z" fill="#80907f" stroke="#80907f"/><path d="M-130.14289847575128,94.50783904641867L-76.89036766067147,402.5028283149004L-68.51580547168851,266.1854419391602Z" fill="#80bf9b" stroke="#80bf9b"/><path d="M-130.14289847575128,94.50783904641867L-68.51580547168851,266.1854419391602L113.61350988037884,77.6560274977237Z" fill="#caf6b9" stroke="#caf6b9"/><path d="M113.61350988037884,77.6560274977237L-68.51580547168851,266.1854419391602L130.2679641544819,222.05301895737648Z" fill="#95d88a" stroke="#95d88a"/><path d="M113.61350988037884,77.6560274977237L130.2679641544819,222.05301895737648L167.84683001227677,67.54278302192688Z" fill="#9adf8e" stroke="#9adf8e"/><path d="M167.84683001227677,67.54278302192688L130.2679641544819,222.05301895737648L268.3716453798115,267.5195086095482Z" fill="#55b568" stroke="#55b568"/><path d="M167.84683001227677,67.54278302192688L268.3716453798115,267.5195086095482L417.8480932395905,27.027881937101483Z" fill="#59a15c" stroke="#59a15c"/><path d="M417.8480932395905,27.027881937101483L268.3716453798115,267.5195086095482L352.0628993958235,274.4175732694566Z" fill="#2d6e37" stroke="#2d6e37"/><path d="M417.8480932395905,27.027881937101483L352.0628993958235,274.4175732694566L373.2409622054547,391.7373001947999Z" fill="#114c26" stroke="#114c26"/><path d="M-68.51580547168851,266.1854419391602L-76.89036766067147,402.5028283149004L83.31304214894772,382.6331326738Z" fill="#808c6d" stroke="#808c6d"/><path d="M-68.51580547168851,266.1854419391602L83.31304214894772,382.6331326738L130.2679641544819,222.05301895737648Z" fill="#6ca462" stroke="#6ca462"/><path d="M130.2679641544819,222.05301895737648L83.31304214894772,382.6331326738L260.5849486682564,353.3878480643034Z" fill="#387d3a" stroke="#387d3a"/><path d="M130.2679641544819,222.05301895737648L260.5849486682564,353.3878480643034L268.3716453798115,267.5195086095482Z" fill="#157634" stroke="#157634"/><path d="M268.3716453798115,267.5195086095482L260.5849486682564,353.3878480643034L352.0628993958235,274.4175732694566Z" fill="#004c12" stroke="#004c12"/><path d="M352.0628993958235,274.4175732694566L260.5849486682564,353.3878480643034L373.2409622054547,391.7373001947999Z" fill="#002700" stroke="#002700"/><path d="M-76.89036766067147,402.5028283149004L373.2409622054547,391.7373001947999L83.31304214894772,382.6331326738Z" fill="#486842" stroke="#486842"/><path d="M83.31304214894772,382.6331326738L373.2409622054547,391.7373001947999L260.5849486682564,353.3878480643034Z" fill="#0a3c1d" stroke="#0a3c1d"/></g></svg>