<svg width="300" height="300" xmlns="http://www.w3.org/2000/svg"><g><path d="M-49.8859487939626,-63.94686833024025L-96.32660502567887,315.0719528552145L-55.71736542508006,86.43468665890396Z" fill="#daedfd" stroke="#daedfd"/><path d="M-49.8859487939626,-63.94686833024025L-55.71736542508006,86.43468665890396L96.42358244396746,-26.500173350796103Z" fill="#f7f4f9" stroke="#f7f4f9"/><path d="M-49.8859487939626,-63.94686833024025L96.42358244396746,-26.500173350796103L272.58786915801466,-122.37526000477374Z" fill="#cfddec" stroke="#cfddec"/><path d="M96.42358244396746,-26.500173350796103L-55.71736542508006,86.43468665890396L94.24207035452127,80.64243078231812Z" fill="#d9e3f4" stroke="#d9e3f4"/><path d="M96.42358244396746,-26.500173350796103L94.24207035452127,80.64243078231812L253.85003535076976,77.67763406038284Z" fill="#a9cce6" stroke="#a9cce6"/><path d="M96.42358244396746,-26.500173350796103L253.85003535076976,77.67763406038284L272.58786915801466,-122.37526000477374Z" fill="#91c4de" stroke="#91c4de"/><path d="M272.58786915801466,-122.37526000477374L253.85003535076976,77.67763406038284L356.6304793674499,39.71162307076156Z" fill="#80afd1" stroke="#80afd1"/><path d="M272.58786915801466,-122.37526000477374L356.6304793674499,39.71162307076156L370.3950516320765,-100.51911220885813Z" fill="#80a5cb" stroke="#80a5cb"/><path d="M370.3950516320765,-100.51911220885813L356.6304793674499,39.71162307076156L409.3758370913565,268.6487123183906Z" fill="#6c8fc5" stroke="#6c8fc5"/><path d="M-55.71736542508006,86.43468665890396L-96.32660502567887,315.0719528552145L-36.04555134661496,195.72590430267155Z" fill="#9ad4f1" stroke="#9ad4f1"/><path d="M-55.71736542508006,86.43468665890396L-36.04555134661496,195.72590430267155L94.24207035452127,80.64243078231812Z" fill="#c9def6" stroke="#c9def6"/><path d="M94.24207035452127,80.64243078231812L-36.04555134661496,195.72590430267155L122.30049312114716,182.89805794134736Z" fill="#9dc8ea" stroke="#9dc8ea"/><path d="M94.24207035452127,80.64243078231812L122.30049312114716,182.89805794134736L221.83835755102336,166.53487695381045Z" fill="#7ab7e1" stroke="#7ab7e1"/><path d="M94.24207035452127,80.64243078231812L221.83835755102336,166.53487695381045L253.85003535076976,77.67763406038284Z" fill="#79b7df" stroke="#79b7df"/><path d="M253.85003535076976,77.67763406038284L221.83835755102336,166.53487695381045L356.6304793674499,39.71162307076156Z" fill="#65a5d4" stroke="#65a5d4"/><path d="M356.6304793674499,39.71162307076156L221.83835755102336,166.53487695381045L409.3758370913565,268.6487123183906Z" fill="#3886c4" stroke="#3886c4"/><path d="M-36.04555134661496,195.72590430267155L-96.32660502567887,315.0719528552145L185.33207167871296,354.8596260510385Z" fill="#70aadc" stroke="#70aadc"/><path d="M-36.04555134661496,195.72590430267155L185.33207167871296,354.8596260510385L122.30049312114716,182.89805794134736Z" fill="#57a7da" stroke="#57a7da"/><path d="M122.30049312114716,182.89805794134736L185.33207167871296,354.8596260510385L221.83835755102336,166.53487695381045Z" fill="#2496cf" stroke="#2496cf"/><path d="M221.83835755102336,166.53487695381045L185.33207167871296,354.8596260510385L409.3758370913565,268.6487123183906Z" fill="#0076bd" stroke="#0076bd"/><path d="M409.3758370913565,268.6487123183906L185.33207167871296,354.8596260510385L373.18457102403045,434.92226072587073Z" fill="#004fa9" stroke="#004fa9"/><path d="M-96.32660502567887,315.0719528552145L130.68025871179998,432.10461722686887L185.33207167871296,354.8596260510385Z" fill="#5d87cb" stroke="#5d87cb"/><path d="M130.68025871179998,432.10461722686887L373.18457102403045,434.92226072587073L185.33207167871296,354.8596260510385Z" fill="#0356af" stroke="#0356af"/></g></svg>